<svg id="Capa_1" enable-background="new 0 0 512 512" height="512" viewBox="0 0 512 512" width="512" xmlns="http://www.w3.org/2000/svg"><g><path d="m402.165 52.711h-292.33c-4.402 0-8.584 1.927-11.443 5.274l-81.369 95.238h477.952l-81.369-95.238c-2.858-3.347-7.039-5.274-11.441-5.274z" fill="#c9bfc8"/><path d="m494.973 153.222h-25.37l-81.366-95.237c-2.865-3.347-7.046-5.277-11.449-5.277h25.38c4.403 0 8.584 1.93 11.439 5.277z" fill="#baafb9"/><path d="m17.024 153.223h477.952v358.777h-477.952z" fill="#efedef"/><g><g><path d="m431.45 403.594h-350.9c-3.957 0-7.164-3.208-7.164-7.164v-90.851c0-3.957 3.208-7.164 7.164-7.164h350.9c3.957 0 7.164 3.208 7.164 7.164v90.851c.001 3.956-3.207 7.164-7.164 7.164z" fill="#5f99d7"/></g><g><path d="m438.616 305.594v90.811c0 3.971-3.219 7.191-7.191 7.191h-24.039c3.961 0 7.181-3.219 7.181-7.191v-90.811c0-3.961-3.219-7.181-7.181-7.181h24.039c3.972.001 7.191 3.22 7.191 7.181z" fill="#3c87d0"/></g><g fill="#0268b4"><path d="m297.876 332.383c-.018-.047-.036-.093-.055-.14-.898-2.179-3-3.586-5.356-3.586-.002 0-.005 0-.007 0-2.359.003-4.461 1.416-5.354 3.6-.016.038-.031.076-.045.114l-13.142 34.506c-.983 2.58.312 5.469 2.893 6.452 2.582.981 5.469-.313 6.452-2.894l2.047-5.373h14.213l2.023 5.359c.755 2.002 2.658 3.235 4.679 3.235.586 0 1.183-.104 1.764-.323 2.584-.975 3.888-3.859 2.913-6.443zm-8.76 22.68 3.331-8.744 3.3 8.744z"/><path d="m254.443 328.605c-.016 0-.033 0-.049 0-2.761.027-4.978 2.287-4.952 5.049l.188 19.395-15.344-22.219c-1.243-1.801-3.512-2.585-5.603-1.933-2.089.651-3.512 2.585-3.512 4.773v35.037c0 2.762 2.239 5 5 5s5-2.238 5-5v-18.997l14.58 21.112c1.446 2.086 3.867 2.967 6.165 2.25 2.341-.731 3.854-2.909 3.854-5.596l-.328-33.92c-.027-2.743-2.26-4.951-4.999-4.951z"/><path d="m387.798 363.139h-9.613v-7.34h8.535c2.761 0 5-2.238 5-5s-2.239-5-5-5h-8.535v-7.34h9.613c2.761 0 5-2.238 5-5s-2.239-5-5-5h-14.613c-2.761 0-5 2.238-5 5v34.68c0 2.762 2.239 5 5 5h14.613c2.761 0 5-2.238 5-5s-2.238-5-5-5z"/><path d="m133.821 329.175h-9.619c-1.328 0-2.601.528-3.539 1.468s-1.463 2.214-1.461 3.542v.025 33.377c0 .367.045.722.12 1.067.119 1.141.605 2.218 1.427 3.034.937.93 2.203 1.451 3.522 1.451h.019c.291-.001 7.155-.027 9.901-.075 10.63-.187 18.346-9.399 18.346-21.906 0-13.149-7.522-21.983-18.716-21.983zm.194 33.89c-1.109.02-2.964.035-4.761.047-.013-3.957-.027-9.254-.027-11.993 0-2.296-.009-7.821-.016-11.944h4.61c8.087 0 8.716 9.172 8.716 11.982 0 5.853-2.635 11.805-8.522 11.908z"/><path d="m349.368 328.3h-19.329c-2.761 0-5 2.238-5 5s2.239 5 5 5h4.625v29.999c0 2.762 2.239 5 5 5s5-2.238 5-5v-29.999h4.704c2.761 0 5-2.238 5-5s-2.239-5-5-5z"/><path d="m188.854 328.657c-12.406 0-22.5 10.094-22.5 22.5s10.093 22.499 22.5 22.499 22.5-10.093 22.5-22.499-10.093-22.5-22.5-22.5zm0 34.999c-6.892 0-12.5-5.607-12.5-12.499 0-6.893 5.607-12.5 12.5-12.5s12.5 5.607 12.5 12.5c0 6.892-5.607 12.499-12.5 12.499z"/></g></g><path d="m469.601 153.223h25.375v358.777h-25.375z" fill="#e5e1e5"/><path d="m351.943 89.157h-191.886c-1.189 0-2.3.591-2.964 1.576l-16.512 24.483c-1.602 2.375.1 5.575 2.964 5.575h224.909c2.864 0 4.566-3.2 2.964-5.575l-16.512-24.483c-.664-.986-1.775-1.576-2.963-1.576z" fill="#9e939d"/><path d="m320.242 120.79c8.354-12.365 13.231-27.271 13.231-43.316.001-42.788-34.686-77.474-77.473-77.474s-77.474 34.686-77.474 77.474c0 14.557 4.015 28.176 10.997 39.81l2.338 3.506z" fill="#fdb441"/><path d="m333.478 77.478c0 16.037-4.887 30.948-13.241 43.314h-25.288c8.354-12.366 13.241-27.277 13.241-43.314 0-38.483-28.05-70.409-64.829-76.444 4.115-.682 8.331-1.034 12.639-1.034 42.791 0 77.478 34.687 77.478 77.478z" fill="#fea613"/><path d="m17.024 153.223h477.952v42.429h-477.952z" fill="#5f99d7"/><path d="m469.601 153.223h25.375v42.429h-25.375z" fill="#3c87d0"/></g></svg>