<svg height="512" viewBox="0 0 512 512" width="512" xmlns="http://www.w3.org/2000/svg" xmlns:xlink="http://www.w3.org/1999/xlink"><linearGradient id="linear-gradient" gradientUnits="userSpaceOnUse" x1="114.515" x2="346.978" y1="378.543" y2="146.08"><stop offset="0" stop-color="#41dfd0"/><stop offset="1" stop-color="#ee83ef"/></linearGradient><g id="gradient"><path d="m488 327.671h-36.725a86.153 86.153 0 0 0 -118.55 0h-76.725a32.051 32.051 0 0 0 -31.562 26.706l-69.721-23.245a32.456 32.456 0 0 0 -42.717 30.79v.525a32.418 32.418 0 0 0 15.03 27.509l138.87 88.368a78.192 78.192 0 0 0 61.727 9.627l121.408-31.951h38.965a8 8 0 0 0 8-8v-112.329a8 8 0 0 0 -8-8zm-8 112.329h-32a7.993 7.993 0 0 0 -2.036.264l-122.414 32.215a62.2 62.2 0 0 1 -49.065-7.653l-138.865-88.368a16.5 16.5 0 0 1 -7.62-14.011v-.525a16.493 16.493 0 0 1 16.4-16.473 16.58 16.58 0 0 1 5.255.862l76.77 25.6a31.96 31.96 0 0 0 29.575 19.76h80a8 8 0 0 0 0-16h-80a15.976 15.976 0 0 1 -15.507-12.038v-.02a16.011 16.011 0 0 1 15.507-19.942h80a8 8 0 0 0 5.657-2.343l.81-.81a70.125 70.125 0 0 1 99.064 0l.81.81a8 8 0 0 0 5.659 2.343h32zm-330.461-210.824c.127.034.255.065.385.093a76.107 76.107 0 0 0 16.022 1.7c.369 0 .738-.011 1.106-.016a28.034 28.034 0 0 0 29.761 15.032l9.466-1.61a25.668 25.668 0 0 0 19.066 4.293l19.138-3.255a36.142 36.142 0 0 0 6.062 8.045l57.8 57.8a8 8 0 0 0 11.314 0l57.8-57.8a36 36 0 0 0 -50.914-50.914l-12.545 12.543-3.383-3.383a33.209 33.209 0 0 0 7.258-41.059 7.977 7.977 0 0 0 .474-1.486l3.323-15.433a44.212 44.212 0 0 0 -9.8-38.116l-29.623-34.1a43.888 43.888 0 0 0 -34.049-15.139l-120.9 2.3-99.731-49.715a8 8 0 0 0 -11.569 7.16v120a8 8 0 0 0 4.706 7.29l62.24 28.119 12.019 14.743a94.79 94.79 0 0 0 53.327 32.65c.416.089.831.176 1.247.258zm36-.744a76.432 76.432 0 0 0 9.811-3.316 25.877 25.877 0 0 0 .812 4.752l-2.026.345a12.038 12.038 0 0 1 -8.602-1.781zm37.129 4.464a9.708 9.708 0 0 1 -9.787-4.307 10.083 10.083 0 0 1 -1.054-8.738 8.839 8.839 0 0 1 2.833-4.155l7.673-3.828 20.366 2.485a35.991 35.991 0 0 0 -2.699 13.647c0 .648.02 1.294.054 1.937zm85.68-.838a8 8 0 0 0 11.314 0l18.2-18.2a20 20 0 0 1 28.287 28.287l-52.149 52.141-52.141-52.14a19.982 19.982 0 0 1 -2.16-25.718l25.212 3.076a33.481 33.481 0 0 0 10.5-.38zm-200.977-45.9-13.209-16.2a7.981 7.981 0 0 0 -2.907-2.235l-59.255-26.771v-101.909l89.918 44.825a8.357 8.357 0 0 0 3.722.84l122.86-2.339c.18 0 .358-.006.537-.006a27.927 27.927 0 0 1 21.136 9.637l29.627 34.1a28.133 28.133 0 0 1 6.235 24.255l-1.527 7.095a33.219 33.219 0 0 0 -8.621-3.142l-14.577-3.139 1.684-7.82a8 8 0 0 0 -15.642-3.368l-1.684 7.821-11.455-2.467-9.019-22.848a8 8 0 0 0 -14.883 5.875l5.1 12.926-16.8-3.617a8 8 0 1 0 -3.368 15.64l77.277 16.639a17.088 17.088 0 0 1 -5.667 33.668l-64.97-7.927a8.006 8.006 0 0 0 -4.539.783l-6.157 3.07c-.019.007-.039.011-.058.018a22.755 22.755 0 0 0 -4.786 2.4l-13.362 6.665a60.642 60.642 0 0 1 -39.178 5.105c-.227-.064-.457-.119-.69-.163-.489-.093-.978-.193-1.457-.3a78.727 78.727 0 0 1 -44.29-27.111z" fill="url(#linear-gradient)"/></g></svg>