<svg id="Capa_1" enable-background="new 0 0 512 512" height="512" viewBox="0 0 512 512" width="512" xmlns="http://www.w3.org/2000/svg"><path d="m200.901 256.002h-145.799c-30.43 0-55.099 24.669-55.099 55.099v145.799c0 30.43 24.669 55.099 55.099 55.099h145.799c30.43 0 55.099-24.669 55.099-55.099v-145.798c0-30.431-24.669-55.1-55.099-55.1z" fill="#ec6161"/><path d="m95.376 511.995h-40.27c-30.431 0-55.104-24.673-55.104-55.104v-145.79c0-30.431 24.673-55.104 55.104-55.104h40.269c-30.431 0-55.104 24.673-55.104 55.104v145.79c.001 30.432 24.673 55.104 55.105 55.104z" fill="#d63030"/><path d="m456.898 256.002h-145.799c-30.43 0-55.099 24.669-55.099 55.099v145.799c0 30.43 24.669 55.099 55.099 55.099h145.799c30.431 0 55.099-24.669 55.099-55.099v-145.798c.001-30.431-24.668-55.1-55.099-55.1z" fill="#0a93a3"/><path d="m351.373 511.995h-40.269c-30.431 0-55.104-24.673-55.104-55.104v-145.79c0-30.431 24.673-55.104 55.104-55.104h40.269c-30.431 0-55.104 24.673-55.104 55.104v145.79c0 30.432 24.673 55.104 55.104 55.104z" fill="#046b74"/><path d="m302.505.005h-145.799c-30.43 0-55.099 24.669-55.099 55.099v145.799c0 30.43 24.669 55.099 55.099 55.099h145.799c30.43 0 55.099-24.669 55.099-55.099v-145.799c0-30.431-24.669-55.099-55.099-55.099z" fill="#fcb143"/><path d="m196.98 255.998h-40.27c-30.431 0-55.104-24.673-55.104-55.104v-145.79c0-30.431 24.673-55.104 55.104-55.104h40.269c-30.431 0-55.104 24.673-55.104 55.104v145.79c.001 30.431 24.673 55.104 55.105 55.104z" fill="#fa9801"/><g fill="#e5ecf1"><path d="m252.452 209.671-47.965-87.348v85.833c0 8.078-9.845 12.118-19.691 12.118-9.845 0-19.691-4.039-19.691-12.118v-160.305c0-8.331 9.845-12.118 19.691-12.118 14.138 0 19.439 1.262 29.032 19.691l40.897 78.007v-85.833c0-8.331 9.845-11.865 19.691-11.865s19.691 3.534 19.691 11.865v160.558c0 8.078-9.845 12.118-19.691 12.118-9.089 0-17.167-1.767-21.964-10.603z"/><path d="m128.128 325.307c-14.39 0-22.721 8.078-22.721 25.245v66.899c0 17.166 8.331 25.245 22.468 25.245s22.72-8.078 22.72-25.245v-8.583h-14.894c-7.573 0-11.865-7.321-11.865-15.147 0-7.321 4.292-15.147 11.865-15.147h42.412c7.573 0 11.865 5.806 11.865 12.37v26.507c0 43.421-27.265 59.578-62.103 59.578s-61.851-16.157-61.851-59.578v-66.899c0-43.421 27.517-59.578 60.588-59.578 36.1 0 63.365 18.176 63.365 50.237 0 15.147-6.311 18.681-19.691 18.681-10.603 0-19.439-2.777-19.691-11.865s-1.009-22.72-22.467-22.72z"/><path d="m322.022 417.451v-66.899c0-43.421 27.012-59.578 61.851-59.578 34.838 0 62.103 16.157 62.103 59.578v66.899c0 43.421-27.265 59.578-62.103 59.578s-61.851-16.157-61.851-59.578zm84.571-66.899c0-17.419-8.583-25.245-22.72-25.245s-22.468 7.826-22.468 25.245v66.899c0 17.419 8.331 25.245 22.468 25.245s22.72-7.826 22.72-25.245z"/></g></svg>